<?xml version="1.0" standalone="no"?>
<!DOCTYPE svg PUBLIC "-//W3C//DTD SVG 20010904//EN"
 "http://www.w3.org/TR/2001/REC-SVG-20010904/DTD/svg10.dtd">
<svg version="1.0" xmlns="http://www.w3.org/2000/svg"
 width="256.000000pt" height="256.000000pt" viewBox="0 0 256.000000 256.000000"
 preserveAspectRatio="xMidYMid meet">
<metadata>
Created by potrace 1.14, written by Peter Selinger 2001-2017
</metadata>
<g transform="translate(0.000000,256.000000) scale(0.100000,-0.100000)"
fill="#000000" stroke="none">
<path d="M0 1280 l0 -1280 1280 0 1280 0 0 1280 0 1280 -1280 0 -1280 0 0
-1280z m790 98 c0 -350 -4 -598 -11 -638 -20 -129 -80 -220 -177 -267 -50 -24
-69 -28 -176 -31 -70 -2 -127 1 -136 7 -11 7 -15 40 -18 139 l-4 129 46 6 c26
4 60 14 77 22 59 31 59 30 59 645 l0 560 170 0 170 0 0 -572z m1281 3 c137
-311 249 -568 249 -573 0 -5 -77 -7 -171 -6 l-170 3 -48 115 -47 115 -254 0
-255 0 -37 -90 c-66 -157 -38 -140 -231 -143 -129 -2 -167 0 -167 10 0 11 451
1039 487 1111 l14 27 191 -2 191 -3 248 -564z"/>
<path d="M1541 1449 c-44 -111 -78 -206 -75 -210 7 -12 321 -11 328 0 4 5 -30
98 -74 207 -44 109 -80 199 -80 201 0 2 -4 3 -9 3 -5 0 -45 -91 -90 -201z"/>
</g>
</svg>
